<?xml version="1.0" encoding="iso-8859-1"?>
<!-- Generator: Adobe Illustrator 23.0.4, SVG Export Plug-In . SVG Version: 6.00 Build 0)  -->
<svg  version="1.1" xmlns="http://www.w3.org/2000/svg" xmlns:xlink="http://www.w3.org/1999/xlink" x="0px" y="0px"
	 viewBox="0 0 64 64" style="enable-background:new 0 0 64 64;" xml:space="preserve">
<g id="wifi-05">
	<path style="fill:#f7deb2" stroke="#f7deb2" stroke-width="1" d="M64,31.346l-1.583,1.583c-5.4-5.4-12.135-9.27-19.479-11.193l0.566-2.165
		C51.233,21.594,58.32,25.666,64,31.346z M20.571,19.551C12.813,21.568,5.699,25.647,0,31.346l1.583,1.583
		c5.418-5.418,12.179-9.295,19.553-11.212L20.571,19.551z M7.802,39.148l1.583,1.583c12.47-12.469,32.761-12.469,45.231,0
		l1.583-1.583C42.857,25.806,21.144,25.806,7.802,39.148z M15.605,46.95l1.583,1.583c8.166-8.166,21.456-8.168,29.626,0l1.583-1.583
		C39.354,37.909,24.643,37.91,15.605,46.95z M36.226,53.571c1.129,1.129,1.751,2.629,1.751,4.226c0,1.597-0.622,3.098-1.751,4.226
		c-1.128,1.129-2.629,1.751-4.226,1.751c-1.597,0-3.097-0.621-4.226-1.751s-1.751-2.63-1.751-4.226s0.622-3.097,1.751-4.226
		c1.128-1.129,2.629-1.751,4.226-1.751C33.598,51.82,35.098,52.441,36.226,53.571z M35.739,57.796c0-0.998-0.389-1.937-1.095-2.643
		c-0.706-0.706-1.645-1.095-2.643-1.095s-1.937,0.389-2.643,1.095s-1.095,1.645-1.095,2.643c0,0.999,0.389,1.937,1.095,2.644
		c1.412,1.412,3.874,1.412,5.286,0C35.35,59.734,35.739,58.795,35.739,57.796z M22.943,22.435v-8.613v-5.2
		c0-4.629,3.766-8.395,8.395-8.395s8.395,3.766,8.395,8.395v5.2v0.114v8.499c0,1.235-1.005,2.239-2.239,2.239H25.182
		C23.948,24.673,22.943,23.669,22.943,22.435z M25.182,11.583h12.312V8.622c0-3.395-2.762-6.156-6.156-6.156
		s-6.156,2.762-6.156,6.156V11.583z M25.182,13.822v8.613h12.313l-0.001-8.499l0,0v-0.114H25.182z M32.457,17.623h-2.239v3.03h2.239
		V17.623z"/>
</g>
<g id="Layer_1">
</g>
</svg>
